<?xml version="1.0" encoding="UTF-8"?>
<svg width="24px" height="24px" viewBox="0 0 24 24" version="1.1" xmlns="http://www.w3.org/2000/svg" xmlns:xlink="http://www.w3.org/1999/xlink">
    <!-- Generator: Sketch 64 (93537) - https://sketch.com -->
    <title>Icon-Detail</title>
    <desc>Created with Sketch.</desc>
    <g id="Icon-Detail" stroke="none" stroke-width="1" fill="none" fill-rule="evenodd">
        <g transform="translate(2.000000, 0.000000)" fill="#000000" fill-rule="nonzero" id="形状">
            <path d="M19.3175518,23.8873057 L5.53433938,23.8873057 C2.48770725,23.8873057 0.0205569948,21.4201554 0.0205569948,18.3784974 L0.0205569948,0.929378238 C0.0205569948,0.422020725 0.430919689,0.0116580311 0.938277202,0.0116580311 L14.7214896,0.0116580311 C17.7681218,0.0116580311 20.235272,2.47880829 20.235272,5.52046632 L20.235272,22.9695855 C20.235272,23.476943 19.8249093,23.8873057 19.3175518,23.8873057 Z M7.83485751,5.98056995 C7.8448057,6.7192228 7.83237047,7.81849741 7.83237047,7.81849741 L9.66781088,7.81849741 C9.67775907,6.80129534 8.84708549,5.97062176 7.83485751,5.98056995 L7.83485751,5.98056995 Z M6.44708549,9.19632124 C6.44708549,9.19632124 6.4421114,7.05746114 6.41226684,5.51797927 C4.38532383,5.4980829 2.75382124,7.12958549 2.77371762,9.15901554 C2.79361399,11.1909326 4.45247409,12.8522798 6.48190415,12.8696891 C8.50884715,12.8895855 10.1378627,11.2580829 10.1179663,9.22865285 C9.31216321,9.2261658 6.44708549,9.19632124 6.44708549,9.19632124 L6.44708549,9.19632124 Z M16.1018005,5.52046632 L12.4259456,5.52046632 C11.9185881,5.52046632 11.5082254,5.93082902 11.5082254,6.43818653 C11.5082254,6.94554404 11.9210751,7.35590674 12.4259456,7.35590674 L16.1018005,7.35590674 C16.609158,7.35590674 17.0195207,6.94554404 17.0195207,6.43818653 C17.0195207,5.93331606 16.609158,5.52046632 16.1018005,5.52046632 Z M16.5619041,11.0317617 L12.4259456,11.0317617 C11.9185881,11.0317617 11.5082254,11.4421244 11.5082254,11.9494819 C11.5082254,12.4568394 11.9210751,12.8672021 12.4259456,12.8672021 L16.5619041,12.8672021 C17.0692617,12.8672021 17.4796244,12.4568394 17.4796244,11.9494819 C17.4796244,11.4421244 17.0667746,11.0317617 16.5619041,11.0317617 L16.5619041,11.0317617 Z M16.5619041,16.5405699 L3.69392487,16.5405699 C3.18656736,16.5405699 2.77620466,16.9509326 2.77620466,17.4582902 C2.77620466,17.9656477 3.1890544,18.3760104 3.69392487,18.3760104 L16.5594171,18.3760104 C17.0667746,18.3760104 17.4771485,17.9656477 17.4771485,17.4582902 C17.4796244,16.9534197 17.0667746,16.5405699 16.5619041,16.5405699 Z"></path>
        </g>
    </g>
</svg>